<svg width="758" height="84" viewBox="0 0 758 84" fill="none" xmlns="http://www.w3.org/2000/svg">
<rect y="36" width="463" height="46" rx="8" fill="black"/>
<path d="M32.6334 65H29.9154V59.456H24.8214V65H22.1034V52.148H24.8214V57.188H29.9154V52.148H32.6334V65ZM34.2471 55.172H37.1811L39.0351 60.698C39.1311 60.962 39.2031 61.238 39.2511 61.526C39.2991 61.802 39.3351 62.096 39.3591 62.408H39.4131C39.4491 62.096 39.4971 61.802 39.5571 61.526C39.6291 61.238 39.7071 60.962 39.7911 60.698L41.6091 55.172H44.4891L40.3311 66.26C39.9591 67.28 39.4131 68.042 38.6931 68.546C37.9851 69.062 37.1631 69.32 36.2271 69.32C35.9271 69.32 35.6631 69.302 35.4351 69.266C35.2191 69.242 35.0271 69.212 34.8591 69.176V67.052C34.9911 67.076 35.1471 67.1 35.3271 67.124C35.5191 67.148 35.7171 67.16 35.9211 67.16C36.4851 67.16 36.9291 66.986 37.2531 66.638C37.5891 66.302 37.8351 65.894 37.9911 65.414L38.1531 64.928L34.2471 55.172ZM59.8671 55.172L56.2491 59.888L60.2091 65H57.3471L53.6031 60.014V65H51.1011V60.014L47.3571 65H44.4951L48.4551 59.888L44.8371 55.172H47.6091L51.1011 59.942V55.172H53.6031V59.942L57.0951 55.172H59.8671ZM64.296 55.172V58.952H68.04V55.172H70.722V65H68.04V60.95H64.296V65H61.614V55.172H64.296ZM82.4599 60.068C82.4599 61.7 82.0279 62.96 81.1639 63.848C80.3119 64.736 79.1479 65.18 77.6719 65.18C76.7599 65.18 75.9439 64.982 75.2239 64.586C74.5159 64.19 73.9579 63.614 73.5499 62.858C73.1419 62.09 72.9379 61.16 72.9379 60.068C72.9379 58.436 73.3639 57.182 74.2159 56.306C75.0679 55.43 76.2379 54.992 77.7259 54.992C78.6499 54.992 79.4659 55.19 80.1739 55.586C80.8819 55.982 81.4399 56.558 81.8479 57.314C82.2559 58.058 82.4599 58.976 82.4599 60.068ZM75.6739 60.068C75.6739 61.04 75.8299 61.778 76.1419 62.282C76.4659 62.774 76.9879 63.02 77.7079 63.02C78.4159 63.02 78.9259 62.774 79.2379 62.282C79.5619 61.778 79.7239 61.04 79.7239 60.068C79.7239 59.096 79.5619 58.37 79.2379 57.89C78.9259 57.398 78.4099 57.152 77.6899 57.152C76.9819 57.152 76.4659 57.398 76.1419 57.89C75.8299 58.37 75.6739 59.096 75.6739 60.068ZM91.7389 54.992C92.4469 54.992 93.1069 55.088 93.7189 55.28C94.3429 55.46 94.8409 55.742 95.2129 56.126C95.5969 56.51 95.7889 57.002 95.7889 57.602C95.7889 58.19 95.6089 58.658 95.2489 59.006C94.9009 59.354 94.4269 59.606 93.8269 59.762V59.852C94.2469 59.948 94.6249 60.086 94.9609 60.266C95.2969 60.434 95.5609 60.668 95.7529 60.968C95.9569 61.256 96.0589 61.646 96.0589 62.138C96.0589 62.678 95.8849 63.182 95.5369 63.65C95.2009 64.106 94.6729 64.478 93.9529 64.766C93.2449 65.042 92.3329 65.18 91.2169 65.18C89.5849 65.18 88.3249 64.976 87.4369 64.568V62.354C87.8449 62.546 88.3429 62.72 88.9309 62.876C89.5309 63.032 90.1669 63.11 90.8389 63.11C91.5709 63.11 92.1889 63.026 92.6929 62.858C93.1969 62.69 93.4489 62.396 93.4489 61.976C93.4489 61.196 92.5189 60.806 90.6589 60.806H89.6149V58.952H90.6049C91.4929 58.952 92.1769 58.88 92.6569 58.736C93.1489 58.592 93.3949 58.322 93.3949 57.926C93.3949 57.614 93.2389 57.38 92.9269 57.224C92.6149 57.056 92.1049 56.972 91.3969 56.972C90.9289 56.972 90.4189 57.026 89.8669 57.134C89.3149 57.242 88.7929 57.398 88.3009 57.602L87.5089 55.73C88.0729 55.514 88.6909 55.34 89.3629 55.208C90.0349 55.064 90.8269 54.992 91.7389 54.992ZM102.173 54.974C103.493 54.974 104.501 55.262 105.197 55.838C105.905 56.402 106.259 57.272 106.259 58.448V65H104.387L103.865 63.668H103.793C103.373 64.196 102.929 64.58 102.461 64.82C101.993 65.06 101.351 65.18 100.535 65.18C99.6593 65.18 98.9333 64.928 98.3573 64.424C97.7813 63.908 97.4933 63.122 97.4933 62.066C97.4933 61.022 97.8593 60.254 98.5913 59.762C99.3233 59.258 100.421 58.982 101.885 58.934L103.595 58.88V58.448C103.595 57.932 103.457 57.554 103.181 57.314C102.917 57.074 102.545 56.954 102.065 56.954C101.585 56.954 101.117 57.026 100.661 57.17C100.205 57.302 99.7493 57.47 99.2933 57.674L98.4113 55.856C98.9393 55.58 99.5213 55.364 100.157 55.208C100.805 55.052 101.477 54.974 102.173 54.974ZM102.551 60.482C101.687 60.506 101.087 60.662 100.751 60.95C100.415 61.238 100.247 61.616 100.247 62.084C100.247 62.492 100.367 62.786 100.607 62.966C100.847 63.134 101.159 63.218 101.543 63.218C102.119 63.218 102.605 63.05 103.001 62.714C103.397 62.366 103.595 61.88 103.595 61.256V60.446L102.551 60.482ZM117.933 55.172V65H115.251V57.188H111.687V65H109.005V55.172H117.933ZM129.675 60.068C129.675 61.7 129.243 62.96 128.379 63.848C127.527 64.736 126.363 65.18 124.887 65.18C123.975 65.18 123.159 64.982 122.439 64.586C121.731 64.19 121.173 63.614 120.765 62.858C120.357 62.09 120.153 61.16 120.153 60.068C120.153 58.436 120.579 57.182 121.431 56.306C122.283 55.43 123.453 54.992 124.941 54.992C125.865 54.992 126.681 55.19 127.389 55.586C128.097 55.982 128.655 56.558 129.063 57.314C129.471 58.058 129.675 58.976 129.675 60.068ZM122.889 60.068C122.889 61.04 123.045 61.778 123.357 62.282C123.681 62.774 124.203 63.02 124.923 63.02C125.631 63.02 126.141 62.774 126.453 62.282C126.777 61.778 126.939 61.04 126.939 60.068C126.939 59.096 126.777 58.37 126.453 57.89C126.141 57.398 125.625 57.152 124.905 57.152C124.197 57.152 123.681 57.398 123.357 57.89C123.045 58.37 122.889 59.096 122.889 60.068ZM140.693 65H138.011V57.188H135.545C135.389 59.108 135.179 60.656 134.915 61.832C134.663 62.996 134.309 63.848 133.853 64.388C133.397 64.916 132.785 65.18 132.017 65.18C131.393 65.18 130.883 65.084 130.487 64.892V62.75C130.763 62.87 131.051 62.93 131.351 62.93C131.567 62.93 131.765 62.822 131.945 62.606C132.125 62.39 132.293 62 132.449 61.436C132.617 60.872 132.767 60.086 132.899 59.078C133.031 58.058 133.151 56.756 133.259 55.172H140.693V65ZM146.175 55.172V58.952H149.919V55.172H152.601V65H149.919V60.95H146.175V65H143.493V55.172H146.175ZM158.003 59.06C158.003 59.264 157.991 59.516 157.967 59.816C157.955 60.116 157.937 60.422 157.913 60.734C157.901 61.046 157.883 61.322 157.859 61.562C157.835 61.802 157.817 61.97 157.805 62.066L162.341 55.172H165.563V65H162.971V61.076C162.971 60.752 162.983 60.398 163.007 60.014C163.031 59.618 163.055 59.252 163.079 58.916C163.115 58.568 163.139 58.304 163.151 58.124L158.633 65H155.411V55.172H158.003V59.06ZM176.502 57.188H173.28V65H170.598V57.188H167.376V55.172H176.502V57.188ZM182.887 58.97C184.399 58.97 185.515 59.21 186.235 59.69C186.967 60.17 187.333 60.896 187.333 61.868C187.333 62.816 186.997 63.578 186.325 64.154C185.653 64.718 184.543 65 182.995 65H178.315V55.172H180.997V58.97H182.887ZM184.651 61.904C184.651 61.184 184.045 60.824 182.833 60.824H180.997V63.146H182.869C183.397 63.146 183.823 63.05 184.147 62.858C184.483 62.666 184.651 62.348 184.651 61.904ZM201.69 55.172V63.038H203.13V68.528H200.718V65H194.112V68.528H191.7V63.038H192.528C192.96 62.378 193.326 61.628 193.626 60.788C193.926 59.936 194.166 59.03 194.346 58.07C194.526 57.11 194.658 56.144 194.742 55.172H201.69ZM196.992 57.188C196.848 58.28 196.65 59.318 196.398 60.302C196.146 61.274 195.792 62.186 195.336 63.038H199.008V57.188H196.992ZM213.607 65H210.925V57.188H208.459C208.303 59.108 208.093 60.656 207.829 61.832C207.577 62.996 207.223 63.848 206.767 64.388C206.311 64.916 205.699 65.18 204.931 65.18C204.307 65.18 203.797 65.084 203.401 64.892V62.75C203.677 62.87 203.965 62.93 204.265 62.93C204.481 62.93 204.679 62.822 204.859 62.606C205.039 62.39 205.207 62 205.363 61.436C205.531 60.872 205.681 60.086 205.813 59.078C205.945 58.058 206.065 56.756 206.173 55.172H213.607V65ZM217.901 65H215.003L217.649 61.112C217.145 60.908 216.695 60.578 216.299 60.122C215.915 59.654 215.723 59.018 215.723 58.214C215.723 57.23 216.095 56.48 216.839 55.964C217.583 55.436 218.537 55.172 219.701 55.172H224.273V65H221.591V61.346H220.115L217.901 65ZM218.351 58.232C218.351 58.64 218.513 58.964 218.837 59.204C219.161 59.432 219.581 59.546 220.097 59.546H221.591V57.062H219.755C219.275 57.062 218.921 57.182 218.693 57.422C218.465 57.65 218.351 57.92 218.351 58.232ZM239.485 60.068C239.485 61.7 239.053 62.96 238.189 63.848C237.337 64.736 236.173 65.18 234.697 65.18C233.785 65.18 232.969 64.982 232.249 64.586C231.541 64.19 230.983 63.614 230.575 62.858C230.167 62.09 229.963 61.16 229.963 60.068C229.963 58.436 230.389 57.182 231.241 56.306C232.093 55.43 233.263 54.992 234.751 54.992C235.675 54.992 236.491 55.19 237.199 55.586C237.907 55.982 238.465 56.558 238.873 57.314C239.281 58.058 239.485 58.976 239.485 60.068ZM232.699 60.068C232.699 61.04 232.855 61.778 233.167 62.282C233.491 62.774 234.013 63.02 234.733 63.02C235.441 63.02 235.951 62.774 236.263 62.282C236.587 61.778 236.749 61.04 236.749 60.068C236.749 59.096 236.587 58.37 236.263 57.89C235.951 57.398 235.435 57.152 234.715 57.152C234.007 57.152 233.491 57.398 233.167 57.89C232.855 58.37 232.699 59.096 232.699 60.068ZM248.884 55.118C250.588 55.262 251.89 55.784 252.79 56.684C253.69 57.572 254.14 58.706 254.14 60.086C254.14 61.466 253.702 62.606 252.826 63.506C251.95 64.406 250.636 64.928 248.884 65.072V69.32H246.4V65.072C244.708 64.916 243.4 64.388 242.476 63.488C241.564 62.588 241.108 61.454 241.108 60.086C241.108 58.682 241.534 57.536 242.386 56.648C243.25 55.748 244.588 55.238 246.4 55.118V51.32H248.884V55.118ZM246.4 57.134C245.62 57.242 245.002 57.566 244.546 58.106C244.09 58.646 243.862 59.306 243.862 60.086C243.862 60.89 244.084 61.562 244.528 62.102C244.972 62.63 245.596 62.942 246.4 63.038V57.134ZM248.884 63.038C249.688 62.942 250.306 62.63 250.738 62.102C251.17 61.562 251.386 60.89 251.386 60.086C251.386 59.306 251.164 58.652 250.72 58.124C250.276 57.584 249.664 57.266 248.884 57.17V63.038ZM265.29 60.068C265.29 61.7 264.858 62.96 263.994 63.848C263.142 64.736 261.978 65.18 260.502 65.18C259.59 65.18 258.774 64.982 258.054 64.586C257.346 64.19 256.788 63.614 256.38 62.858C255.972 62.09 255.768 61.16 255.768 60.068C255.768 58.436 256.194 57.182 257.046 56.306C257.898 55.43 259.068 54.992 260.556 54.992C261.48 54.992 262.296 55.19 263.004 55.586C263.712 55.982 264.27 56.558 264.678 57.314C265.086 58.058 265.29 58.976 265.29 60.068ZM258.504 60.068C258.504 61.04 258.66 61.778 258.972 62.282C259.296 62.774 259.818 63.02 260.538 63.02C261.246 63.02 261.756 62.774 262.068 62.282C262.392 61.778 262.554 61.04 262.554 60.068C262.554 59.096 262.392 58.37 262.068 57.89C261.756 57.398 261.24 57.152 260.52 57.152C259.812 57.152 259.296 57.398 258.972 57.89C258.66 58.37 258.504 59.096 258.504 60.068ZM272.979 54.992C274.083 54.992 274.977 55.424 275.661 56.288C276.345 57.14 276.687 58.4 276.687 60.068C276.687 61.736 276.333 63.008 275.625 63.884C274.917 64.748 274.011 65.18 272.907 65.18C272.199 65.18 271.635 65.054 271.215 64.802C270.795 64.538 270.453 64.244 270.189 63.92H270.045C270.141 64.424 270.189 64.904 270.189 65.36V69.32H267.507V55.172H269.685L270.063 56.45H270.189C270.453 56.054 270.807 55.712 271.251 55.424C271.695 55.136 272.271 54.992 272.979 54.992ZM272.115 57.134C271.419 57.134 270.927 57.35 270.639 57.782C270.363 58.214 270.213 58.874 270.189 59.762V60.05C270.189 60.998 270.327 61.73 270.603 62.246C270.891 62.75 271.407 63.002 272.151 63.002C272.763 63.002 273.213 62.75 273.501 62.246C273.801 61.73 273.951 60.992 273.951 60.032C273.951 58.1 273.339 57.134 272.115 57.134ZM291.281 55.172V65H288.779V60.176C288.779 59.696 288.785 59.228 288.797 58.772C288.821 58.316 288.851 57.896 288.887 57.512H288.833L286.115 65H284.099L281.345 57.494H281.273C281.321 57.89 281.351 58.316 281.363 58.772C281.387 59.216 281.399 59.708 281.399 60.248V65H278.897V55.172H282.695L285.143 61.832L287.627 55.172H291.281ZM302.887 65H300.205V57.188H297.739C297.583 59.108 297.373 60.656 297.109 61.832C296.857 62.996 296.503 63.848 296.047 64.388C295.591 64.916 294.979 65.18 294.211 65.18C293.587 65.18 293.077 65.084 292.681 64.892V62.75C292.957 62.87 293.245 62.93 293.545 62.93C293.761 62.93 293.959 62.822 294.139 62.606C294.319 62.39 294.487 62 294.643 61.436C294.811 60.872 294.961 60.086 295.093 59.078C295.225 58.058 295.345 56.756 295.453 55.172H302.887V65ZM309.736 54.992C311.092 54.992 312.166 55.382 312.958 56.162C313.75 56.93 314.146 58.028 314.146 59.456V60.752H307.81C307.834 61.508 308.056 62.102 308.476 62.534C308.908 62.966 309.502 63.182 310.258 63.182C310.894 63.182 311.47 63.122 311.986 63.002C312.502 62.87 313.036 62.672 313.588 62.408V64.478C313.108 64.718 312.598 64.892 312.058 65C311.53 65.12 310.888 65.18 310.132 65.18C309.148 65.18 308.278 65 307.522 64.64C306.766 64.268 306.172 63.71 305.74 62.966C305.308 62.222 305.092 61.286 305.092 60.158C305.092 59.006 305.284 58.052 305.668 57.296C306.064 56.528 306.61 55.952 307.306 55.568C308.002 55.184 308.812 54.992 309.736 54.992ZM309.754 56.9C309.238 56.9 308.806 57.068 308.458 57.404C308.122 57.74 307.924 58.262 307.864 58.97H311.626C311.614 58.37 311.458 57.878 311.158 57.494C310.858 57.098 310.39 56.9 309.754 56.9ZM319.003 55.172V58.952H322.747V55.172H325.429V65H322.747V60.95H319.003V65H316.321V55.172H319.003ZM330.831 59.06C330.831 59.264 330.819 59.516 330.795 59.816C330.783 60.116 330.765 60.422 330.741 60.734C330.729 61.046 330.711 61.322 330.687 61.562C330.663 61.802 330.645 61.97 330.633 62.066L335.169 55.172H338.391V65H335.799V61.076C335.799 60.752 335.811 60.398 335.835 60.014C335.859 59.618 335.883 59.252 335.907 58.916C335.943 58.568 335.967 58.304 335.979 58.124L331.461 65H328.239V55.172H330.831V59.06ZM342.688 65H339.79L342.436 61.112C341.932 60.908 341.482 60.578 341.086 60.122C340.702 59.654 340.51 59.018 340.51 58.214C340.51 57.23 340.882 56.48 341.626 55.964C342.37 55.436 343.324 55.172 344.488 55.172H349.06V65H346.378V61.346H344.902L342.688 65ZM343.138 58.232C343.138 58.64 343.3 58.964 343.624 59.204C343.948 59.432 344.368 59.546 344.884 59.546H346.378V57.062H344.542C344.062 57.062 343.708 57.182 343.48 57.422C343.252 57.65 343.138 57.92 343.138 58.232ZM364.182 55.172V63.038H365.622V68.528H363.21V65H356.604V68.528H354.192V63.038H355.02C355.452 62.378 355.818 61.628 356.118 60.788C356.418 59.936 356.658 59.03 356.838 58.07C357.018 57.11 357.15 56.144 357.234 55.172H364.182ZM359.484 57.188C359.34 58.28 359.142 59.318 358.89 60.302C358.638 61.274 358.284 62.186 357.828 63.038H361.5V57.188H359.484ZM376.226 60.068C376.226 61.7 375.794 62.96 374.93 63.848C374.078 64.736 372.914 65.18 371.438 65.18C370.526 65.18 369.71 64.982 368.99 64.586C368.282 64.19 367.724 63.614 367.316 62.858C366.908 62.09 366.704 61.16 366.704 60.068C366.704 58.436 367.13 57.182 367.982 56.306C368.834 55.43 370.004 54.992 371.492 54.992C372.416 54.992 373.232 55.19 373.94 55.586C374.648 55.982 375.206 56.558 375.614 57.314C376.022 58.058 376.226 58.976 376.226 60.068ZM369.44 60.068C369.44 61.04 369.596 61.778 369.908 62.282C370.232 62.774 370.754 63.02 371.474 63.02C372.182 63.02 372.692 62.774 373.004 62.282C373.328 61.778 373.49 61.04 373.49 60.068C373.49 59.096 373.328 58.37 373.004 57.89C372.692 57.398 372.176 57.152 371.456 57.152C370.748 57.152 370.232 57.398 369.908 57.89C369.596 58.37 369.44 59.096 369.44 60.068ZM382.438 65.18C380.974 65.18 379.84 64.778 379.036 63.974C378.244 63.158 377.848 61.88 377.848 60.14C377.848 58.94 378.052 57.962 378.46 57.206C378.868 56.45 379.432 55.892 380.152 55.532C380.884 55.172 381.724 54.992 382.672 54.992C383.344 54.992 383.926 55.058 384.418 55.19C384.922 55.322 385.36 55.478 385.732 55.658L384.94 57.728C384.52 57.56 384.124 57.422 383.752 57.314C383.392 57.206 383.032 57.152 382.672 57.152C381.28 57.152 380.584 58.142 380.584 60.122C380.584 61.106 380.764 61.832 381.124 62.3C381.496 62.768 382.012 63.002 382.672 63.002C383.236 63.002 383.734 62.93 384.166 62.786C384.598 62.63 385.018 62.42 385.426 62.156V64.442C385.018 64.706 384.586 64.892 384.13 65C383.686 65.12 383.122 65.18 382.438 65.18ZM395.824 57.188H392.602V65H389.92V57.188H386.698V55.172H395.824V57.188ZM401.669 54.974C402.989 54.974 403.997 55.262 404.693 55.838C405.401 56.402 405.755 57.272 405.755 58.448V65H403.883L403.361 63.668H403.289C402.869 64.196 402.425 64.58 401.957 64.82C401.489 65.06 400.847 65.18 400.031 65.18C399.155 65.18 398.429 64.928 397.853 64.424C397.277 63.908 396.989 63.122 396.989 62.066C396.989 61.022 397.355 60.254 398.087 59.762C398.819 59.258 399.917 58.982 401.381 58.934L403.091 58.88V58.448C403.091 57.932 402.953 57.554 402.677 57.314C402.413 57.074 402.041 56.954 401.561 56.954C401.081 56.954 400.613 57.026 400.157 57.17C399.701 57.302 399.245 57.47 398.789 57.674L397.907 55.856C398.435 55.58 399.017 55.364 399.653 55.208C400.301 55.052 400.973 54.974 401.669 54.974ZM402.047 60.482C401.183 60.506 400.583 60.662 400.247 60.95C399.911 61.238 399.743 61.616 399.743 62.084C399.743 62.492 399.863 62.786 400.103 62.966C400.343 63.134 400.655 63.218 401.039 63.218C401.615 63.218 402.101 63.05 402.497 62.714C402.893 62.366 403.091 61.88 403.091 61.256V60.446L402.047 60.482ZM417.213 57.746C417.213 58.274 417.045 58.724 416.709 59.096C416.385 59.468 415.899 59.708 415.251 59.816V59.888C415.935 59.972 416.481 60.206 416.889 60.59C417.309 60.974 417.519 61.466 417.519 62.066C417.519 62.63 417.369 63.134 417.069 63.578C416.781 64.022 416.319 64.37 415.683 64.622C415.047 64.874 414.213 65 413.181 65H408.501V55.172H413.181C413.949 55.172 414.633 55.256 415.233 55.424C415.845 55.58 416.325 55.844 416.673 56.216C417.033 56.588 417.213 57.098 417.213 57.746ZM414.495 57.962C414.495 57.362 414.021 57.062 413.073 57.062H411.183V59.006H412.767C413.331 59.006 413.757 58.928 414.045 58.772C414.345 58.604 414.495 58.334 414.495 57.962ZM414.747 61.922C414.747 61.538 414.597 61.262 414.297 61.094C413.997 60.914 413.547 60.824 412.947 60.824H411.183V63.146H413.001C413.505 63.146 413.919 63.056 414.243 62.876C414.579 62.684 414.747 62.366 414.747 61.922ZM426.265 55.172H429.217L425.329 59.888L429.559 65H426.517L422.503 60.014V65H419.821V55.172H422.503V59.942L426.265 55.172ZM433.558 59.06C433.558 59.264 433.546 59.516 433.522 59.816C433.51 60.116 433.492 60.422 433.468 60.734C433.456 61.046 433.438 61.322 433.414 61.562C433.39 61.802 433.372 61.97 433.36 62.066L437.896 55.172H441.118V65H438.526V61.076C438.526 60.752 438.538 60.398 438.562 60.014C438.586 59.618 438.61 59.252 438.634 58.916C438.67 58.568 438.694 58.304 438.706 58.124L434.188 65H430.966V55.172H433.558V59.06Z" fill="white"/>
<g filter="url(#filter0_dd)">
<path fill-rule="evenodd" clip-rule="evenodd" d="M196 28C199 28 202 36 206 36H186C189.975 36 193 28 196 28Z" fill="black"/>
</g>
<defs>
<filter id="filter0_dd" x="154" y="0" width="84" height="72" filterUnits="userSpaceOnUse" color-interpolation-filters="sRGB">
<feFlood flood-opacity="0" result="BackgroundImageFix"/>
<feColorMatrix in="SourceAlpha" type="matrix" values="0 0 0 0 0 0 0 0 0 0 0 0 0 0 0 0 0 0 127 0"/>
<feOffset dy="4"/>
<feGaussianBlur stdDeviation="16"/>
<feColorMatrix type="matrix" values="0 0 0 0 0 0 0 0 0 0 0 0 0 0 0 0 0 0 0.16 0"/>
<feBlend mode="normal" in2="BackgroundImageFix" result="effect1_dropShadow"/>
<feColorMatrix in="SourceAlpha" type="matrix" values="0 0 0 0 0 0 0 0 0 0 0 0 0 0 0 0 0 0 127 0"/>
<feOffset/>
<feGaussianBlur stdDeviation="2"/>
<feColorMatrix type="matrix" values="0 0 0 0 0 0 0 0 0 0 0 0 0 0 0 0 0 0 0.04 0"/>
<feBlend mode="normal" in2="effect1_dropShadow" result="effect2_dropShadow"/>
<feBlend mode="normal" in="SourceGraphic" in2="effect2_dropShadow" result="shape"/>
</filter>
</defs>
</svg>
